<svg xmlns="http://www.w3.org/2000/svg" width="800" height="800" fill="none" viewBox="0 0 120 120"><path fill="#EFF1F3" d="M0 0h120v120H0z"/><path fill="#687787" fill-rule="evenodd" d="M16.223 24.948a4.38 4.38 0 0 1 4.343-4.347h78.868a4.346 4.346 0 0 1 4.343 4.347v70.104a4.38 4.38 0 0 1-4.343 4.347H20.566a4.35 4.35 0 0 1-4.343-4.347zm78.799 4.408H24.978v61.288l40.679-40.687a4.38 4.38 0 0 1 6.19 0l23.175 23.22Zm-61.288 17.51a8.755 8.755 0 1 0 17.51 0 8.755 8.755 0 0 0-17.51 0" clip-rule="evenodd" style="stroke-width:1.6677"/></svg>